<svg id="Capa_1" enable-background="new 0 0 508 508" height="512" viewBox="0 0 508 508" width="512" xmlns="http://www.w3.org/2000/svg"><g><path d="m504.717 161.156-8-13.856c-6.064-10.505-19.549-14.118-30.049-8.055l-114.13 65.832-31.552-63.577c-4.59-9.25-10.46-17.811-17.45-25.44l-58.68-63.979c-12.68-13.83-23.19-29.431-31.25-46.37-1.65-3.47-5.2-5.71-9.03-5.71h-24.899c-5.511 0-9.99 4.49-9.99 10s4.479 10 9.99 10h18.689c8.49 16.54 19.18 31.88 31.75 45.59l58.67 63.99c5.72 6.229 10.53 13.229 14.29 20.81l46.98 94.66c3.819 7.7 5.84 16.31 5.84 24.89v55.654l-24-13.86v-43.322c0-2.106-.665-4.16-1.901-5.866l-48.927-67.548c-2.68-3.7-7.526-5.111-11.777-3.433-4.249 1.682-6.818 6.028-6.241 10.562l6.526 51.273c1.545 12.141 2.32 24.367 2.32 36.605v79.678c0 6.762-5.456 12.423-12.217 12.315-6.733-.108-11.783-5.23-11.783-11.998v-81.692c0-9.572-1.297-19.101-3.854-28.325l-18.993-68.494c-3.542-12.775-22.815-7.431-19.273 5.344l4.639 16.729-23.9 129.921c-4.392 13.808-26.699 9.428-22.73-6.571.039-.156 11.651-52.653 11.651-52.653 3.038-13.745 4.438-27.851 4.161-41.925l-.888-45.115c-.262-13.331-20.258-12.938-19.996.393l.888 45.115c.246 12.494-.997 25.015-3.694 37.216l-9.848 44.551-1.826 1.051c-3.976-1.766-7.251-5.902-7.166-11.644l2.63-60.739c.07-1.57-.26-3.221-.92-4.641l-48.98-105.54c-10.17-21.899-15.54-46.01-15.54-69.729 0-10.601 1.061-21.21 3.15-31.54.35-1.71.25-3.42-.29-5.09l-5.431-16.623h18c6.58 0 11.692-6.404 9.458-13.301-1.311-4.047-5.204-6.699-9.458-6.699h-31.792c-6.8 0-11.617 6.641-9.506 13.105l8.907 27.265c-2.02 10.79-3.04 21.85-3.04 32.88 0 37.298 11.71 65.89 17.4 78.149l6.383 13.755-11.564-6.668c-9.095-5.325-22.74-3.906-30.052 8.054l-8 13.856c-5.721 10.797-2.624 23.636 8.053 30.052l19.456 11.233v154.706l-44.584 25.673c-10.538 6.068-14.155 19.534-8.075 30.065l12.624 21.865v44.01c0 5.522 4.478 10 10 10s10-4.478 10-10v-40.832l20.036-11.568v52.4c0 5.522 4.478 10 10 10s10-4.478 10-10v-63.947l151.964-87.736v23.114c0 17.662 14.07 32.431 31.732 32.568 18.072.141 32.268-13.965 32.268-31.999v-12.083l150 86.628v53.455c0 5.522 4.478 10 10 10s10-4.478 10-10v-41.945c6.113 2.945 12.919 3.364 20-.107v42.052c0 5.522 4.478 10 10 10s10-4.478 10-10v-310.931c6.326-6.847 7.756-17.365 2.821-25.913zm-379.134 175.126-49.651 28.589v-131.643l43.518 25.125-2.334 54.246c-.337 9.044 2.721 17.465 8.467 23.683zm-79.108-143.155c-1.047-.667-1.204-1.865-.731-2.73l8.001-13.857c.599-1.027 1.918-1.233 2.736-.729l36.185 20.865 14.655 31.581zm-15.151 243.587c-.954.549-2.181.222-2.731-.732l-7.999-13.856c-.553-.957-.224-2.182.734-2.733l123.2-70.939c1.401 6.176 5.998 12.854 10.803 16.666zm196.572-113.491-19.377 11.188 14.121-76.76 2.129 7.677c2.075 7.484 3.128 15.216 3.128 22.98v34.915zm248.768-166.655c.958-.553 2.183-.223 2.733.731l8 13.856c.551.954.156 2.211-.498 2.593l-116.708 67.325c-.683-1.664-8.743-18.047-8.743-18.047zm-164.768 115.085v28.531l-20.003-11.552c-.056-12.624-.883-25.233-2.477-37.757l-1.584-12.445zm169.636 151.901-7.999 13.855c-.554.955-1.78 1.283-2.732.734l-178.905-103.32v-23.093l188.903 109.091c1.141.662 1.201 1.973.733 2.733zm-105.636-86.41v-67.204c0-2.929-.173-5.859-.514-8.771l106.514-61.445v198.635zm-251.21-327.144c0-5.51 4.479-10 9.99-10 5.52 0 10 4.49 10 10s-4.48 10-10 10c-5.51 0-9.99-4.49-9.99-10z"/></g></svg>